<?xml version="1.0" encoding="utf-8"?>
<!-- Generator: Adobe Illustrator 22.0.1, SVG Export Plug-In . SVG Version: 6.00 Build 0)  -->
<svg version="1.1" id="Layer_1" xmlns="http://www.w3.org/2000/svg" xmlns:xlink="http://www.w3.org/1999/xlink" x="0px" y="0px"
	 viewBox="0 0 299.9 113.4" style="enable-background:new 0 0 299.9 113.4;" xml:space="preserve">
<style type="text/css">
	.st0{fill:#16335C;}
	.st1{enable-background:new    ;}
	.st2{fill:none;stroke:#16335C;stroke-width:0.4;stroke-miterlimit:10;}
</style>
<path class="st0" d="M237.2,88.9h20.7V56.3H288V37.1h-30.1V20.6h40.6V1.4h-61.3V88.9z M159.7,88.9h66.2V69.6h-45.5V53.1h30.1V33.9
	h-30.1V20.6H221V1.4h-61.3V88.9z M116.6,71c-11.8,0-19.1-5.3-23.9-10.2l-12.5,15c6.3,7.1,16.6,14.4,35.1,14.4
	c23.3,0,34.8-11.1,34.8-28.7c0-17.5-10.1-22.7-29.8-27.4c-12-2.8-15.2-4.4-15.2-8.4c0-4.4,4.6-6.5,11.2-6.5c8.9,0,13.7,2.7,19.2,7.6
	l11.6-14.2C142.9,7.4,134.9,0,116.4,0C95.3,0,84.5,12.8,84.5,26.9c0,16.3,9.2,21.9,27.5,26.5c15.4,3.8,17.5,5.5,17.5,10.4
	C129.5,67.3,126.1,71,116.6,71 M43.7,19.2c7.5,0,12.2,3.5,16.1,7.9L73,12.7C66.2,5.7,58.1,0,42.6,0C17.4,0,0.8,18.6,0.8,45.1
	s16.6,45.1,41.9,45.1c18.1,0,26.4-7.2,32.5-14.2L61.8,61.3c-3.9,5.1-9.1,9.7-18.2,9.7c-13.9,0-22.1-10.2-22.1-25.9
	C21.5,29.5,29.6,19.2,43.7,19.2"/>
<path class="st0" d="M9.8,111.3c-0.2,0.3-0.4,0.6-0.7,0.8s-0.6,0.5-0.9,0.7c-0.3,0.2-0.7,0.3-1.1,0.5c-0.4,0.1-0.9,0.2-1.4,0.2
	c-0.8,0-1.6-0.1-2.3-0.4s-1.3-0.7-1.8-1.2s-0.9-1.1-1.2-1.9S0,108.3,0,107.5s0.1-1.6,0.4-2.3c0.3-0.7,0.7-1.3,1.2-1.9
	c0.5-0.5,1.1-0.9,1.8-1.2c0.7-0.3,1.4-0.4,2.3-0.4c0.4,0,0.8,0,1.2,0.1c0.4,0.1,0.7,0.2,1.1,0.4c0.3,0.2,0.6,0.3,0.9,0.6
	c0.3,0.2,0.5,0.5,0.7,0.7l-0.9,0.7c-0.1-0.2-0.3-0.4-0.5-0.5c-0.2-0.2-0.4-0.3-0.7-0.5c-0.3-0.1-0.5-0.2-0.8-0.3
	c-0.3-0.1-0.6-0.1-1-0.1c-0.7,0-1.3,0.1-1.9,0.4s-1,0.6-1.4,1.1c-0.4,0.4-0.7,1-0.9,1.5c-0.2,0.6-0.3,1.2-0.3,1.9s0.1,1.3,0.3,1.9
	s0.5,1.1,0.9,1.5s0.9,0.8,1.4,1.1c0.6,0.3,1.2,0.4,1.9,0.4c0.6,0,1.2-0.1,1.8-0.4s1-0.7,1.4-1.3L9.8,111.3z"/>
<path class="st0" d="M17.8,109.2c0,0.1,0,0.2,0,0.2s0,0.2,0,0.3h-6c0,0.4,0.1,0.7,0.2,1c0.1,0.3,0.3,0.6,0.6,0.9
	c0.2,0.2,0.5,0.4,0.8,0.6c0.3,0.1,0.7,0.2,1,0.2c0.5,0,1-0.1,1.4-0.4s0.7-0.6,0.9-0.9l0.8,0.6c-0.4,0.6-0.9,1-1.4,1.2
	s-1.1,0.4-1.7,0.4c-0.5,0-1-0.1-1.5-0.3c-0.5-0.2-0.9-0.5-1.2-0.8s-0.6-0.8-0.8-1.2c-0.2-0.5-0.3-1-0.3-1.5s0.1-1.1,0.3-1.5
	c0.2-0.5,0.4-0.9,0.8-1.2c0.3-0.3,0.7-0.6,1.2-0.8c0.4-0.2,0.9-0.3,1.4-0.3c0.6,0,1.1,0.1,1.5,0.3c0.4,0.2,0.8,0.5,1.1,0.8
	s0.5,0.7,0.7,1.2C17.7,108.2,17.8,108.7,17.8,109.2z M16.7,108.8c0-0.7-0.2-1.3-0.7-1.7c-0.4-0.5-1-0.7-1.7-0.7
	c-0.4,0-0.7,0.1-1,0.2s-0.6,0.3-0.8,0.5s-0.4,0.5-0.5,0.8s-0.2,0.6-0.2,0.9C11.8,108.8,16.7,108.8,16.7,108.8z"/>
<path class="st0" d="M20.7,105.7c0,0.2,0,0.4,0,0.7c0,0.2,0,0.4,0,0.6l0,0c0.2-0.4,0.5-0.8,1-1c0.5-0.3,1-0.4,1.5-0.4
	c0.9,0,1.6,0.3,2.1,0.8c0.5,0.6,0.7,1.3,0.7,2.2v4.5h-1.1V109c0-0.4,0-0.7-0.1-1.1c-0.1-0.3-0.2-0.6-0.3-0.8
	c-0.1-0.2-0.4-0.4-0.6-0.5c-0.3-0.1-0.6-0.2-1-0.2c-0.3,0-0.5,0.1-0.8,0.2s-0.5,0.3-0.7,0.5s-0.4,0.5-0.5,0.9s-0.2,0.8-0.2,1.3v3.8
	h-1.1v-5.8c0-0.2,0-0.5,0-0.8s0-0.6,0-0.9L20.7,105.7L20.7,105.7z"/>
<path class="st0" d="M31.6,106.6h-2v4.3c0,0.3,0,0.5,0.1,0.7s0.1,0.3,0.2,0.4s0.2,0.2,0.3,0.2c0.1,0,0.3,0.1,0.4,0.1s0.3,0,0.5-0.1
	s0.3-0.1,0.5-0.2v0.9c-0.2,0.1-0.4,0.1-0.6,0.2c-0.2,0-0.4,0.1-0.7,0.1c-0.2,0-0.4,0-0.6-0.1s-0.4-0.2-0.6-0.3
	c-0.2-0.1-0.3-0.3-0.5-0.6c-0.1-0.3-0.2-0.6-0.2-1v-4.6h-1.5v-0.9h1.5v-2.1h1.1v2.1h2v0.9H31.6z"/>
<path class="st0" d="M45.6,109.2c0,0.1,0,0.2,0,0.2s0,0.2,0,0.3h-6c0,0.4,0.1,0.7,0.2,1c0.1,0.3,0.3,0.6,0.6,0.9
	c0.2,0.2,0.5,0.4,0.8,0.6c0.3,0.1,0.7,0.2,1,0.2c0.5,0,1-0.1,1.4-0.4s0.7-0.6,0.9-0.9l0.8,0.6c-0.4,0.6-0.9,1-1.4,1.2
	s-1.1,0.4-1.7,0.4c-0.5,0-1-0.1-1.5-0.3c-0.5-0.2-0.9-0.5-1.2-0.8s-0.6-0.8-0.8-1.2c-0.2-0.5-0.3-1-0.3-1.5s0.1-1.1,0.3-1.5
	c0.2-0.5,0.4-0.9,0.8-1.2c0.3-0.3,0.7-0.6,1.2-0.8c0.4-0.2,0.9-0.3,1.4-0.3c0.6,0,1.1,0.1,1.5,0.3c0.4,0.2,0.8,0.5,1.1,0.8
	s0.5,0.7,0.7,1.2C45.5,108.2,45.6,108.7,45.6,109.2z M44.5,108.8c0-0.7-0.2-1.3-0.7-1.7c-0.4-0.5-1-0.7-1.7-0.7
	c-0.4,0-0.7,0.1-1,0.2s-0.6,0.3-0.8,0.5s-0.4,0.5-0.5,0.8s-0.2,0.6-0.2,0.9C39.6,108.8,44.5,108.8,44.5,108.8z"/>
<path class="st0" d="M33.5,106.6c0-0.3,0-0.6,0-0.9h1c0,0.2,0,0.4,0,0.7c0,0.2,0,0.4,0,0.6l0,0c0.2-0.4,0.5-0.8,0.9-1
	s0.9-0.4,1.4-0.4c0.1,0,0.3,0,0.4,0c0.1,0,0.2,0,0.3,0.1l-0.1,1c-0.1,0-0.2,0-0.3-0.1c-0.1,0-0.3,0-0.4,0c-0.3,0-0.5,0.1-0.8,0.2
	s-0.5,0.3-0.7,0.5s-0.3,0.5-0.5,0.9c-0.1,0.4-0.2,0.8-0.2,1.3v3.8h-1.1v-5.8C33.5,107.1,33.5,106.9,33.5,106.6z"/>
<path class="st0" d="M53.4,106.6h-1.7v6.5h-1.1v-6.5h-1.5v-0.9h1.5v-2c0-0.8,0.2-1.5,0.6-2c0.4-0.5,1-0.7,1.9-0.7c0.1,0,0.3,0,0.4,0
	c0.2,0,0.3,0,0.4,0.1l-0.2,0.9c-0.1,0-0.2-0.1-0.3-0.1s-0.2,0-0.4,0c-0.3,0-0.5,0-0.7,0.1s-0.3,0.2-0.4,0.4
	c-0.1,0.2-0.2,0.4-0.2,0.6s-0.1,0.5-0.1,0.7v1.9h1.7L53.4,106.6L53.4,106.6z"/>
<path class="st0" d="M61.8,109.4c0,0.6-0.1,1.1-0.3,1.5c-0.2,0.5-0.5,0.9-0.8,1.2c-0.3,0.3-0.7,0.6-1.2,0.8c-0.5,0.2-1,0.3-1.6,0.3
	s-1.1-0.1-1.5-0.3c-0.5-0.2-0.9-0.5-1.2-0.8s-0.6-0.8-0.8-1.2c-0.2-0.5-0.3-1-0.3-1.5s0.1-1.1,0.3-1.5c0.2-0.5,0.5-0.9,0.8-1.2
	c0.3-0.3,0.7-0.6,1.2-0.8c0.5-0.2,1-0.3,1.5-0.3c0.6,0,1.1,0.1,1.6,0.3c0.5,0.2,0.9,0.5,1.2,0.8s0.6,0.8,0.8,1.2
	C61.7,108.3,61.8,108.8,61.8,109.4z M60.7,109.4c0-0.4-0.1-0.8-0.2-1.2c-0.1-0.4-0.3-0.7-0.5-0.9s-0.5-0.5-0.9-0.6
	c-0.3-0.2-0.7-0.2-1.1-0.2s-0.8,0.1-1.1,0.2c-0.3,0.2-0.6,0.4-0.9,0.6s-0.4,0.6-0.5,0.9c-0.1,0.4-0.2,0.7-0.2,1.2
	c0,0.4,0.1,0.8,0.2,1.2c0.1,0.4,0.3,0.7,0.5,0.9s0.5,0.5,0.9,0.6c0.3,0.2,0.7,0.2,1.1,0.2s0.8-0.1,1.1-0.2c0.3-0.2,0.6-0.4,0.9-0.6
	s0.4-0.6,0.5-0.9C60.6,110.2,60.7,109.8,60.7,109.4z"/>
<path class="st0" d="M63.7,106.6c0-0.3,0-0.6,0-0.9h1c0,0.2,0,0.4,0,0.7c0,0.2,0,0.4,0,0.6l0,0c0.2-0.4,0.5-0.8,0.9-1
	s0.9-0.4,1.4-0.4c0.1,0,0.3,0,0.4,0s0.2,0,0.3,0.1l-0.1,1c-0.1,0-0.2,0-0.3-0.1c-0.1,0-0.3,0-0.4,0c-0.3,0-0.5,0.1-0.8,0.2
	s-0.5,0.3-0.7,0.5s-0.3,0.5-0.5,0.9c-0.1,0.4-0.2,0.8-0.2,1.3v3.8h-1.1v-5.8C63.7,107.1,63.7,106.9,63.7,106.6z"/>
<path class="st0" d="M77.9,103.7c-0.2-0.3-0.5-0.6-0.9-0.8c-0.4-0.2-0.8-0.3-1.3-0.3c-0.3,0-0.5,0-0.8,0.1s-0.5,0.2-0.8,0.4
	s-0.4,0.4-0.5,0.7s-0.2,0.6-0.2,0.9s0.1,0.7,0.2,0.9c0.1,0.2,0.3,0.4,0.5,0.6s0.5,0.3,0.8,0.4s0.6,0.2,0.9,0.3
	c0.4,0.1,0.8,0.3,1.1,0.4c0.4,0.1,0.7,0.3,1,0.6c0.3,0.2,0.6,0.5,0.8,0.9c0.2,0.4,0.3,0.8,0.3,1.4s-0.1,1-0.3,1.4
	c-0.2,0.4-0.5,0.7-0.8,1s-0.7,0.5-1.1,0.6s-0.9,0.2-1.3,0.2c-0.3,0-0.7,0-1-0.1s-0.6-0.2-0.9-0.3c-0.3-0.1-0.6-0.3-0.8-0.5
	c-0.3-0.2-0.5-0.5-0.7-0.7l1-0.7c0.2,0.4,0.6,0.7,1,1s0.9,0.4,1.5,0.4c0.3,0,0.6,0,0.8-0.1c0.3-0.1,0.5-0.2,0.8-0.4
	c0.2-0.2,0.4-0.4,0.6-0.7s0.2-0.6,0.2-0.9c0-0.4-0.1-0.7-0.2-1s-0.3-0.5-0.6-0.6s-0.5-0.3-0.8-0.4s-0.7-0.2-1-0.3
	c-0.4-0.1-0.7-0.2-1.1-0.4c-0.4-0.1-0.7-0.3-0.9-0.6c-0.3-0.2-0.5-0.5-0.7-0.9c-0.2-0.3-0.3-0.8-0.3-1.3s0.1-1,0.3-1.4
	c0.2-0.4,0.5-0.7,0.8-1s0.7-0.4,1.1-0.6s0.8-0.2,1.2-0.2c0.7,0,1.4,0.1,1.9,0.4s0.9,0.6,1.2,1L77.9,103.7z"/>
<path class="st0" d="M84.1,106.6h-2v4.3c0,0.3,0,0.5,0.1,0.7s0.1,0.3,0.2,0.4s0.2,0.2,0.3,0.2c0.1,0,0.3,0.1,0.4,0.1s0.3,0,0.5-0.1
	s0.3-0.1,0.5-0.2v0.9c-0.2,0.1-0.4,0.1-0.6,0.2c-0.2,0-0.4,0.1-0.7,0.1c-0.2,0-0.4,0-0.6-0.1s-0.4-0.2-0.6-0.3
	c-0.2-0.1-0.3-0.3-0.5-0.6c-0.1-0.3-0.2-0.6-0.2-1v-4.6h-1.5v-0.9H81v-2.1h1.1v2.1h2V106.6z"/>
<path class="st0" d="M90.7,113.1c0-0.2,0-0.4,0-0.7s0-0.4,0-0.6l0,0c-0.2,0.4-0.5,0.8-1,1c-0.5,0.3-1,0.4-1.5,0.4
	c-0.9,0-1.6-0.3-2.1-0.8s-0.7-1.3-0.7-2.2v-4.5h1.1v4.1c0,0.4,0,0.7,0.1,1.1c0.1,0.3,0.2,0.6,0.3,0.8s0.4,0.4,0.6,0.5
	c0.3,0.1,0.6,0.2,1,0.2c0.3,0,0.5-0.1,0.8-0.2s0.5-0.3,0.7-0.5s0.4-0.5,0.5-0.9s0.2-0.8,0.2-1.3v-3.8h1.1v5.8c0,0.2,0,0.5,0,0.8
	s0,0.6,0,0.9h-1.1V113.1z"/>
<path class="st0" d="M100.1,111.8c-0.3,0.5-0.7,0.8-1.2,1.1s-1,0.4-1.5,0.4c-0.6,0-1.1-0.1-1.5-0.3c-0.5-0.2-0.8-0.5-1.2-0.8
	c-0.3-0.3-0.6-0.8-0.8-1.2c-0.2-0.5-0.3-1-0.3-1.5s0.1-1.1,0.3-1.5c0.2-0.5,0.4-0.9,0.8-1.2c0.3-0.3,0.7-0.6,1.2-0.8
	c0.5-0.2,1-0.3,1.5-0.3s1,0.1,1.5,0.4c0.5,0.2,0.9,0.6,1.2,1.1l0,0v-5.8h1.1v11.9h-1.1V111.8L100.1,111.8z M94.7,109.4
	c0,0.4,0.1,0.8,0.2,1.2c0.1,0.4,0.3,0.7,0.5,0.9c0.2,0.3,0.5,0.5,0.9,0.6s0.7,0.2,1.2,0.2c0.4,0,0.8-0.1,1.1-0.2s0.6-0.4,0.9-0.6
	s0.4-0.6,0.6-0.9c0.1-0.4,0.2-0.8,0.2-1.2s-0.1-0.8-0.2-1.2c-0.1-0.4-0.3-0.7-0.6-0.9s-0.5-0.5-0.9-0.6c-0.3-0.2-0.7-0.2-1.1-0.2
	s-0.8,0.1-1.2,0.2c-0.3,0.2-0.6,0.4-0.9,0.6c-0.2,0.3-0.4,0.6-0.5,0.9C94.8,108.6,94.7,109,94.7,109.4z"/>
<path class="st0" d="M105,102.9c0,0.2-0.1,0.4-0.2,0.5c-0.2,0.1-0.3,0.2-0.5,0.2s-0.4-0.1-0.5-0.2c-0.2-0.1-0.2-0.3-0.2-0.5
	s0.1-0.4,0.2-0.5c0.2-0.1,0.3-0.2,0.5-0.2s0.4,0.1,0.5,0.2S105,102.6,105,102.9z M104.7,113.1h-1.1v-7.4h1.1V113.1z"/>
<path class="st0" d="M113.8,109.2c0,0.1,0,0.2,0,0.2s0,0.2,0,0.3h-6c0,0.4,0.1,0.7,0.2,1s0.3,0.6,0.6,0.9c0.2,0.2,0.5,0.4,0.8,0.6
	c0.3,0.1,0.7,0.2,1,0.2c0.5,0,1-0.1,1.4-0.4s0.7-0.6,0.9-0.9l0.8,0.6c-0.4,0.6-0.9,1-1.4,1.2s-1.1,0.4-1.7,0.4c-0.5,0-1-0.1-1.5-0.3
	c-0.5-0.2-0.9-0.5-1.2-0.8c-0.3-0.3-0.6-0.8-0.8-1.2c-0.2-0.5-0.3-1-0.3-1.5s0.1-1.1,0.3-1.5c0.2-0.5,0.4-0.9,0.8-1.2
	c0.3-0.3,0.7-0.6,1.2-0.8c0.4-0.2,0.9-0.3,1.4-0.3c0.6,0,1.1,0.1,1.5,0.3c0.4,0.2,0.8,0.5,1.1,0.8c0.3,0.3,0.5,0.7,0.7,1.2
	C113.7,108.2,113.8,108.7,113.8,109.2z M112.7,108.8c0-0.7-0.2-1.3-0.7-1.7c-0.4-0.5-1-0.7-1.7-0.7c-0.4,0-0.7,0.1-1,0.2
	s-0.6,0.3-0.8,0.5c-0.2,0.2-0.4,0.5-0.5,0.8s-0.2,0.6-0.2,0.9C107.8,108.8,112.7,108.8,112.7,108.8z"/>
<path class="st0" d="M119.6,107.4c-0.2-0.3-0.4-0.6-0.7-0.7c-0.3-0.2-0.7-0.3-1.1-0.3c-0.2,0-0.4,0-0.6,0.1c-0.2,0-0.4,0.1-0.5,0.2
	s-0.3,0.2-0.3,0.4c-0.1,0.1-0.1,0.3-0.1,0.5c0,0.3,0.1,0.6,0.4,0.8c0.3,0.2,0.7,0.3,1.3,0.5c0.9,0.2,1.5,0.4,1.9,0.8
	c0.4,0.3,0.6,0.8,0.6,1.4c0,0.4-0.1,0.8-0.2,1.1s-0.4,0.5-0.6,0.7c-0.3,0.2-0.5,0.3-0.9,0.4c-0.3,0.1-0.7,0.1-1,0.1
	c-0.5,0-1.1-0.1-1.6-0.3s-0.9-0.6-1.3-1.1l0.8-0.6c0.2,0.3,0.5,0.6,0.8,0.8c0.4,0.2,0.8,0.3,1.2,0.3c0.2,0,0.4,0,0.6-0.1
	c0.2,0,0.4-0.1,0.5-0.2c0.2-0.1,0.3-0.2,0.4-0.4c0.1-0.2,0.1-0.4,0.1-0.6c0-0.4-0.2-0.7-0.5-0.9c-0.4-0.2-0.9-0.4-1.6-0.5
	c-0.2-0.1-0.4-0.1-0.7-0.2c-0.2-0.1-0.5-0.2-0.7-0.3c-0.2-0.2-0.4-0.3-0.5-0.6c-0.1-0.2-0.2-0.5-0.2-0.9s0.1-0.7,0.2-1
	s0.3-0.5,0.6-0.7s0.5-0.3,0.8-0.4s0.6-0.1,1-0.1c0.5,0,1,0.1,1.5,0.3c0.5,0.2,0.8,0.6,1.1,1L119.6,107.4z"/>
<path class="st0" d="M127.2,102.9c0,0.2-0.1,0.4-0.2,0.5c-0.2,0.1-0.3,0.2-0.5,0.2s-0.4-0.1-0.5-0.2c-0.2-0.1-0.2-0.3-0.2-0.5
	s0.1-0.4,0.2-0.5c0.2-0.1,0.3-0.2,0.5-0.2s0.4,0.1,0.5,0.2S127.2,102.6,127.2,102.9z M127,113.1h-1.1v-7.4h1.1V113.1z"/>
<path class="st0" d="M130.4,105.7c0,0.2,0,0.4,0,0.7c0,0.2,0,0.4,0,0.6l0,0c0.2-0.4,0.5-0.8,1-1c0.5-0.3,1-0.4,1.5-0.4
	c0.9,0,1.6,0.3,2.1,0.8c0.5,0.6,0.7,1.3,0.7,2.2v4.5h-1.1V109c0-0.4,0-0.7-0.1-1.1c-0.1-0.3-0.2-0.6-0.3-0.8
	c-0.1-0.2-0.4-0.4-0.6-0.5c-0.3-0.1-0.6-0.2-1-0.2c-0.3,0-0.5,0.1-0.8,0.2s-0.5,0.3-0.7,0.5s-0.4,0.5-0.5,0.9s-0.2,0.8-0.2,1.3v3.8
	h-1.1v-5.8c0-0.2,0-0.5,0-0.8s0-0.6,0-0.9L130.4,105.7L130.4,105.7z"/>
<path class="st0" d="M142.8,112.1h5.9v1h-7v-11.2h6.8v1h-5.7v3.8h5.3v1h-5.3V112.1z"/>
<path class="st0" d="M155.7,107.4c-0.2-0.3-0.4-0.5-0.8-0.7c-0.3-0.2-0.7-0.3-1.1-0.3c-0.4,0-0.8,0.1-1.1,0.2
	c-0.3,0.2-0.6,0.4-0.9,0.6c-0.2,0.3-0.4,0.6-0.6,0.9c-0.1,0.4-0.2,0.8-0.2,1.2s0.1,0.8,0.2,1.2c0.1,0.4,0.3,0.7,0.5,0.9
	s0.5,0.5,0.9,0.6s0.7,0.2,1.1,0.2c0.5,0,0.9-0.1,1.2-0.3s0.6-0.4,0.8-0.7l0.8,0.6c-0.3,0.4-0.7,0.7-1.1,0.9c-0.4,0.2-1,0.3-1.6,0.3
	s-1.1-0.1-1.6-0.3s-0.9-0.5-1.2-0.8s-0.6-0.8-0.8-1.2c-0.2-0.5-0.3-1-0.3-1.5s0.1-1.1,0.3-1.5c0.2-0.5,0.4-0.9,0.8-1.2
	c0.3-0.3,0.7-0.6,1.2-0.8c0.5-0.2,1-0.3,1.6-0.3c0.5,0,1,0.1,1.5,0.3s0.9,0.5,1.2,1L155.7,107.4z"/>
<path class="st0" d="M165.1,109.4c0,0.6-0.1,1.1-0.3,1.5c-0.2,0.5-0.5,0.9-0.8,1.2c-0.3,0.3-0.7,0.6-1.2,0.8c-0.5,0.2-1,0.3-1.6,0.3
	s-1.1-0.1-1.5-0.3c-0.5-0.2-0.9-0.5-1.2-0.8s-0.6-0.8-0.8-1.2c-0.2-0.5-0.3-1-0.3-1.5s0.1-1.1,0.3-1.5c0.2-0.5,0.5-0.9,0.8-1.2
	c0.3-0.3,0.7-0.6,1.2-0.8c0.5-0.2,1-0.3,1.5-0.3c0.6,0,1.1,0.1,1.6,0.3c0.5,0.2,0.9,0.5,1.2,0.8s0.6,0.8,0.8,1.2
	C165,108.3,165.1,108.8,165.1,109.4z M164,109.4c0-0.4-0.1-0.8-0.2-1.2c-0.1-0.4-0.3-0.7-0.5-0.9s-0.5-0.5-0.9-0.6
	c-0.3-0.2-0.7-0.2-1.1-0.2s-0.8,0.1-1.1,0.2c-0.3,0.2-0.6,0.4-0.9,0.6s-0.4,0.6-0.5,0.9c-0.1,0.4-0.2,0.7-0.2,1.2
	c0,0.4,0.1,0.8,0.2,1.2c0.1,0.4,0.3,0.7,0.5,0.9s0.5,0.5,0.9,0.6c0.3,0.2,0.7,0.2,1.1,0.2s0.8-0.1,1.1-0.2c0.3-0.2,0.6-0.4,0.9-0.6
	s0.4-0.6,0.5-0.9C163.9,110.2,164,109.8,164,109.4z"/>
<path class="st0" d="M168,105.7c0,0.2,0,0.4,0,0.7c0,0.2,0,0.4,0,0.6l0,0c0.2-0.4,0.5-0.8,1-1c0.5-0.3,1-0.4,1.5-0.4
	c0.9,0,1.6,0.3,2.1,0.8c0.5,0.6,0.7,1.3,0.7,2.2v4.5h-1.1V109c0-0.4,0-0.7-0.1-1.1c-0.1-0.3-0.2-0.6-0.3-0.8
	c-0.1-0.2-0.4-0.4-0.6-0.5c-0.3-0.1-0.6-0.2-1-0.2c-0.3,0-0.5,0.1-0.8,0.2s-0.5,0.3-0.7,0.5s-0.4,0.5-0.5,0.9s-0.2,0.8-0.2,1.3v3.8
	h-1v-5.8c0-0.2,0-0.5,0-0.8s0-0.6,0-0.9L168,105.7L168,105.7z"/>
<path class="st0" d="M182.9,109.4c0,0.6-0.1,1.1-0.3,1.5c-0.2,0.5-0.5,0.9-0.8,1.2c-0.3,0.3-0.7,0.6-1.2,0.8c-0.5,0.2-1,0.3-1.6,0.3
	s-1.1-0.1-1.5-0.3c-0.5-0.2-0.9-0.5-1.2-0.8s-0.6-0.8-0.8-1.2c-0.2-0.5-0.3-1-0.3-1.5s0.1-1.1,0.3-1.5c0.2-0.5,0.5-0.9,0.8-1.2
	c0.3-0.3,0.7-0.6,1.2-0.8c0.5-0.2,1-0.3,1.5-0.3c0.6,0,1.1,0.1,1.6,0.3c0.5,0.2,0.9,0.5,1.2,0.8s0.6,0.8,0.8,1.2
	C182.8,108.3,182.9,108.8,182.9,109.4z M181.8,109.4c0-0.4-0.1-0.8-0.2-1.2c-0.1-0.4-0.3-0.7-0.5-0.9s-0.5-0.5-0.9-0.6
	c-0.3-0.2-0.7-0.2-1.1-0.2s-0.8,0.1-1.1,0.2c-0.3,0.2-0.6,0.4-0.9,0.6s-0.4,0.6-0.5,0.9c-0.1,0.4-0.2,0.7-0.2,1.2
	c0,0.4,0.1,0.8,0.2,1.2c0.1,0.4,0.3,0.7,0.5,0.9s0.5,0.5,0.9,0.6c0.3,0.2,0.7,0.2,1.1,0.2s0.8-0.1,1.1-0.2c0.3-0.2,0.6-0.4,0.9-0.6
	s0.4-0.6,0.5-0.9C181.7,110.2,181.8,109.8,181.8,109.4z"/>
<path class="st0" d="M186.8,105.9c0.4-0.3,0.9-0.4,1.4-0.4c0.2,0,0.4,0,0.6,0.1c0.2,0,0.4,0.1,0.6,0.2c0.2,0.1,0.4,0.3,0.6,0.5
	c0.2,0.2,0.3,0.5,0.4,0.8c0.2-0.5,0.6-0.9,1-1.2c0.4-0.3,0.9-0.4,1.5-0.4c0.9,0,1.6,0.3,2.1,0.8c0.5,0.6,0.7,1.3,0.7,2.2v4.5h-1.1
	v-4c0-0.8-0.1-1.4-0.4-1.9s-0.8-0.7-1.4-0.7c-0.4,0-0.7,0.1-1,0.2c-0.3,0.2-0.5,0.4-0.6,0.6c-0.2,0.3-0.3,0.5-0.3,0.9
	c-0.1,0.3-0.1,0.7-0.1,1v3.9h-1.1v-4.3c0-0.4,0-0.7-0.1-1s-0.1-0.5-0.3-0.7c-0.1-0.2-0.3-0.4-0.5-0.5s-0.5-0.2-0.9-0.2
	c-0.2,0-0.5,0.1-0.7,0.2c-0.3,0.1-0.5,0.3-0.7,0.5s-0.4,0.5-0.5,0.9s-0.2,0.8-0.2,1.3v3.8h-1.1v-5.8c0-0.2,0-0.5,0-0.8s0-0.6,0-0.9
	h1c0,0.2,0,0.4,0,0.7c0,0.2,0,0.4,0,0.6l0,0C186.1,106.5,186.4,106.2,186.8,105.9z"/>
<path class="st0" d="M199.5,102.9c0,0.2-0.1,0.4-0.2,0.5c-0.2,0.1-0.3,0.2-0.5,0.2s-0.4-0.1-0.5-0.2c-0.2-0.1-0.2-0.3-0.2-0.5
	s0.1-0.4,0.2-0.5c0.2-0.1,0.3-0.2,0.5-0.2s0.4,0.1,0.5,0.2C199.4,102.5,199.5,102.6,199.5,102.9z M199.2,113.1h-1.1v-7.4h1.1V113.1z
	"/>
<path class="st0" d="M206.9,107.4c-0.2-0.3-0.4-0.5-0.8-0.7c-0.3-0.2-0.7-0.3-1.1-0.3c-0.4,0-0.8,0.1-1.1,0.2
	c-0.3,0.2-0.6,0.4-0.9,0.6c-0.2,0.3-0.4,0.6-0.6,0.9c-0.1,0.4-0.2,0.8-0.2,1.2s0.1,0.8,0.2,1.2c0.1,0.4,0.3,0.7,0.5,0.9
	s0.5,0.5,0.9,0.6s0.7,0.2,1.1,0.2c0.5,0,0.9-0.1,1.2-0.3s0.6-0.4,0.8-0.7l0.8,0.6c-0.3,0.4-0.7,0.7-1.1,0.9c-0.4,0.2-1,0.3-1.6,0.3
	s-1.1-0.1-1.6-0.3s-0.9-0.5-1.2-0.8s-0.6-0.8-0.8-1.2c-0.2-0.5-0.3-1-0.3-1.5s0.1-1.1,0.3-1.5c0.2-0.5,0.4-0.9,0.8-1.2
	c0.3-0.3,0.7-0.6,1.2-0.8c0.5-0.2,1-0.3,1.6-0.3c0.5,0,1,0.1,1.5,0.3s0.9,0.5,1.2,1L206.9,107.4z"/>
<path class="st0" d="M213,107.4c-0.2-0.3-0.4-0.6-0.7-0.7c-0.3-0.2-0.7-0.3-1.1-0.3c-0.2,0-0.4,0-0.6,0.1c-0.2,0-0.4,0.1-0.5,0.2
	s-0.3,0.2-0.3,0.4c-0.1,0.1-0.1,0.3-0.1,0.5c0,0.3,0.1,0.6,0.4,0.8c0.3,0.2,0.7,0.3,1.3,0.5c0.9,0.2,1.5,0.4,1.9,0.8
	c0.4,0.3,0.6,0.8,0.6,1.4c0,0.4-0.1,0.8-0.2,1.1s-0.4,0.5-0.6,0.7c-0.3,0.2-0.5,0.3-0.9,0.4c-0.3,0.1-0.7,0.1-1,0.1
	c-0.5,0-1.1-0.1-1.6-0.3s-0.9-0.6-1.3-1.1l0.8-0.6c0.2,0.3,0.5,0.6,0.8,0.8c0.4,0.2,0.8,0.3,1.2,0.3c0.2,0,0.4,0,0.6-0.1
	c0.2,0,0.4-0.1,0.5-0.2c0.2-0.1,0.3-0.2,0.4-0.4c0.1-0.2,0.1-0.4,0.1-0.6c0-0.4-0.2-0.7-0.5-0.9c-0.4-0.2-0.9-0.4-1.6-0.5
	c-0.2-0.1-0.4-0.1-0.7-0.2c-0.2-0.1-0.5-0.2-0.7-0.3c-0.2-0.2-0.4-0.3-0.5-0.6c-0.1-0.2-0.2-0.5-0.2-0.9s0.1-0.7,0.2-1
	c0.1-0.3,0.3-0.5,0.6-0.7s0.5-0.3,0.8-0.4s0.6-0.1,1-0.1c0.5,0,1,0.1,1.5,0.3c0.5,0.2,0.8,0.6,1.1,1L213,107.4z"/>
<path class="st0" d="M223.8,108.3c0-0.6-0.2-1.1-0.5-1.4s-0.8-0.5-1.4-0.5c-0.4,0-0.8,0.1-1.2,0.2c-0.4,0.2-0.7,0.4-0.9,0.6
	l-0.6-0.7c0.3-0.3,0.7-0.6,1.2-0.8s1-0.3,1.7-0.3c0.4,0,0.8,0.1,1.1,0.2s0.6,0.3,0.9,0.5s0.5,0.5,0.6,0.8s0.2,0.7,0.2,1.2v3.2
	c0,0.3,0,0.6,0,0.9s0.1,0.6,0.1,0.8h-1c0-0.2-0.1-0.4-0.1-0.6s0-0.4,0-0.6l0,0c-0.3,0.5-0.7,0.8-1.1,1.1c-0.4,0.2-0.9,0.3-1.5,0.3
	c-0.3,0-0.6,0-0.9-0.1c-0.3-0.1-0.6-0.2-0.8-0.4c-0.2-0.2-0.4-0.4-0.6-0.7c-0.2-0.3-0.2-0.6-0.2-1c0-0.6,0.1-1,0.4-1.4
	s0.7-0.6,1.1-0.7s1-0.3,1.6-0.3s1.2-0.1,1.9-0.1L223.8,108.3L223.8,108.3z M223.5,109.4c-0.4,0-0.9,0-1.3,0.1
	c-0.4,0-0.8,0.1-1.2,0.2s-0.6,0.3-0.9,0.5c-0.2,0.2-0.3,0.5-0.3,0.8s0,0.5,0.1,0.7s0.2,0.3,0.4,0.4s0.3,0.2,0.5,0.2s0.4,0.1,0.6,0.1
	c0.4,0,0.7-0.1,1-0.2s0.5-0.3,0.7-0.5s0.3-0.5,0.4-0.8s0.2-0.6,0.2-0.9v-0.6C223.7,109.4,223.5,109.4,223.5,109.4z"/>
<path class="st0" d="M228.2,105.7c0,0.2,0,0.4,0,0.7c0,0.2,0,0.4,0,0.6l0,0c0.2-0.4,0.5-0.8,1-1c0.5-0.3,1-0.4,1.5-0.4
	c0.9,0,1.6,0.3,2.1,0.8c0.5,0.6,0.7,1.3,0.7,2.2v4.5h-1.1V109c0-0.4,0-0.7-0.1-1.1c-0.1-0.3-0.2-0.6-0.3-0.8
	c-0.1-0.2-0.4-0.4-0.6-0.5c-0.3-0.1-0.6-0.2-1-0.2c-0.3,0-0.5,0.1-0.8,0.2s-0.5,0.3-0.7,0.5s-0.4,0.5-0.5,0.9s-0.2,0.8-0.2,1.3v3.8
	h-1.1v-5.8c0-0.2,0-0.5,0-0.8s0-0.6,0-0.9L228.2,105.7L228.2,105.7z"/>
<path class="st0" d="M241.8,111.8c-0.3,0.5-0.7,0.8-1.2,1.1s-1,0.4-1.5,0.4c-0.6,0-1.1-0.1-1.5-0.3c-0.5-0.2-0.8-0.5-1.2-0.8
	c-0.3-0.3-0.6-0.8-0.8-1.2c-0.2-0.5-0.3-1-0.3-1.5s0.1-1.1,0.3-1.5c0.2-0.5,0.4-0.9,0.8-1.2c0.3-0.3,0.7-0.6,1.2-0.8
	c0.5-0.2,1-0.3,1.5-0.3s1,0.1,1.5,0.4c0.5,0.2,0.9,0.6,1.2,1.1l0,0v-5.8h1.1v11.9h-1.1V111.8L241.8,111.8z M236.5,109.4
	c0,0.4,0.1,0.8,0.2,1.2c0.1,0.4,0.3,0.7,0.5,0.9c0.2,0.3,0.5,0.5,0.9,0.6s0.7,0.2,1.2,0.2c0.4,0,0.8-0.1,1.1-0.2s0.6-0.4,0.9-0.6
	s0.4-0.6,0.6-0.9c0.1-0.4,0.2-0.8,0.2-1.2s-0.1-0.8-0.2-1.2c-0.1-0.4-0.3-0.7-0.6-0.9s-0.5-0.5-0.9-0.6c-0.3-0.2-0.7-0.2-1.1-0.2
	c-0.4,0-0.8,0.1-1.2,0.2c-0.3,0.2-0.6,0.4-0.9,0.6c-0.2,0.3-0.4,0.6-0.5,0.9C236.5,108.6,236.5,109,236.5,109.4z"/>
<path class="st0" d="M250.1,113.1H249v-11.2h6.6v1h-5.5v3.9h5.1v1h-5.1V113.1z"/>
<path class="st0" d="M258.4,102.9c0,0.2-0.1,0.4-0.2,0.5c-0.2,0.1-0.3,0.2-0.5,0.2s-0.4-0.1-0.5-0.2c-0.2-0.1-0.2-0.3-0.2-0.5
	s0.1-0.4,0.2-0.5c0.2-0.1,0.3-0.2,0.5-0.2s0.4,0.1,0.5,0.2S258.4,102.6,258.4,102.9z M258.1,113.1H257v-7.4h1.1V113.1z"/>
<path class="st0" d="M261.6,105.7c0,0.2,0,0.4,0,0.7c0,0.2,0,0.4,0,0.6l0,0c0.2-0.4,0.5-0.8,1-1c0.5-0.3,1-0.4,1.5-0.4
	c0.9,0,1.6,0.3,2.1,0.8c0.5,0.6,0.7,1.3,0.7,2.2v4.5h-1.1V109c0-0.4,0-0.7-0.1-1.1c-0.1-0.3-0.2-0.6-0.3-0.8
	c-0.1-0.2-0.4-0.4-0.6-0.5c-0.3-0.1-0.6-0.2-1-0.2c-0.3,0-0.5,0.1-0.8,0.2s-0.5,0.3-0.7,0.5s-0.4,0.5-0.5,0.9s-0.2,0.8-0.2,1.3v3.8
	h-1.1v-5.8c0-0.2,0-0.5,0-0.8s0-0.6,0-0.9L261.6,105.7L261.6,105.7z"/>
<path class="st0" d="M273.9,108.3c0-0.6-0.2-1.1-0.5-1.4s-0.8-0.5-1.4-0.5c-0.4,0-0.8,0.1-1.2,0.2c-0.4,0.2-0.7,0.4-0.9,0.6
	l-0.6-0.7c0.3-0.3,0.7-0.6,1.2-0.8s1-0.3,1.7-0.3c0.4,0,0.8,0.1,1.1,0.2s0.6,0.3,0.9,0.5s0.5,0.5,0.6,0.8s0.2,0.7,0.2,1.2v3.2
	c0,0.3,0,0.6,0,0.9s0.1,0.6,0.1,0.8H274c0-0.2-0.1-0.4-0.1-0.6s0-0.4,0-0.6l0,0c-0.3,0.5-0.7,0.8-1.1,1.1c-0.4,0.2-0.9,0.3-1.5,0.3
	c-0.3,0-0.6,0-0.9-0.1s-0.6-0.2-0.8-0.4c-0.2-0.2-0.4-0.4-0.6-0.7c-0.2-0.3-0.2-0.6-0.2-1c0-0.6,0.1-1,0.4-1.4s0.7-0.6,1.1-0.7
	s1-0.3,1.6-0.3s1.2-0.1,1.9-0.1v-0.2H273.9z M273.5,109.4c-0.4,0-0.9,0-1.3,0.1c-0.4,0-0.8,0.1-1.2,0.2s-0.6,0.3-0.9,0.5
	c-0.2,0.2-0.3,0.5-0.3,0.8s0,0.5,0.1,0.7s0.2,0.3,0.4,0.4c0.2,0.1,0.3,0.2,0.5,0.2s0.4,0.1,0.6,0.1c0.4,0,0.7-0.1,1-0.2
	s0.5-0.3,0.7-0.5s0.3-0.5,0.4-0.8s0.2-0.6,0.2-0.9v-0.6C273.7,109.4,273.5,109.4,273.5,109.4z"/>
<path class="st0" d="M278.2,105.7c0,0.2,0,0.4,0,0.7c0,0.2,0,0.4,0,0.6l0,0c0.2-0.4,0.5-0.8,1-1c0.5-0.3,1-0.4,1.5-0.4
	c0.9,0,1.6,0.3,2.1,0.8c0.5,0.6,0.7,1.3,0.7,2.2v4.5h-1.1V109c0-0.4,0-0.7-0.1-1.1c-0.1-0.3-0.2-0.6-0.3-0.8
	c-0.1-0.2-0.4-0.4-0.6-0.5c-0.3-0.1-0.6-0.2-1-0.2c-0.3,0-0.5,0.1-0.8,0.2s-0.5,0.3-0.7,0.5s-0.4,0.5-0.5,0.9s-0.2,0.8-0.2,1.3v3.8
	h-1.1v-5.8c0-0.2,0-0.5,0-0.8s0-0.6,0-0.9L278.2,105.7L278.2,105.7z"/>
<path class="st0" d="M291.1,107.4c-0.2-0.3-0.4-0.5-0.8-0.7c-0.3-0.2-0.7-0.3-1.1-0.3s-0.8,0.1-1.1,0.2c-0.3,0.2-0.6,0.4-0.9,0.6
	c-0.2,0.3-0.4,0.6-0.6,0.9c-0.1,0.4-0.2,0.8-0.2,1.2s0.1,0.8,0.2,1.2c0.1,0.4,0.3,0.7,0.5,0.9s0.5,0.5,0.9,0.6s0.7,0.2,1.1,0.2
	c0.5,0,0.9-0.1,1.2-0.3s0.6-0.4,0.8-0.7l0.8,0.6c-0.3,0.4-0.7,0.7-1.1,0.9c-0.4,0.2-1,0.3-1.6,0.3s-1.1-0.1-1.6-0.3
	s-0.9-0.5-1.2-0.8c-0.3-0.3-0.6-0.8-0.8-1.2c-0.2-0.5-0.3-1-0.3-1.5s0.1-1.1,0.3-1.5c0.2-0.5,0.4-0.9,0.8-1.2
	c0.3-0.3,0.7-0.6,1.2-0.8c0.5-0.2,1-0.3,1.6-0.3c0.5,0,1,0.1,1.5,0.3s0.9,0.5,1.2,1L291.1,107.4z"/>
<path class="st0" d="M299.9,109.2c0,0.1,0,0.2,0,0.2s0,0.2,0,0.3h-6c0,0.4,0.1,0.7,0.2,1s0.3,0.6,0.6,0.9c0.2,0.2,0.5,0.4,0.8,0.6
	c0.3,0.1,0.7,0.2,1,0.2c0.5,0,1-0.1,1.4-0.4s0.7-0.6,0.9-0.9l0.8,0.6c-0.4,0.6-0.9,1-1.4,1.2s-1.1,0.4-1.7,0.4c-0.5,0-1-0.1-1.5-0.3
	c-0.5-0.2-0.9-0.5-1.2-0.8c-0.3-0.3-0.6-0.8-0.8-1.2c-0.2-0.5-0.3-1-0.3-1.5s0.1-1.1,0.3-1.5c0.2-0.5,0.4-0.9,0.8-1.2
	c0.3-0.3,0.7-0.6,1.2-0.8c0.4-0.2,0.9-0.3,1.4-0.3c0.6,0,1.1,0.1,1.5,0.3c0.4,0.2,0.8,0.5,1.1,0.8c0.3,0.3,0.5,0.7,0.7,1.2
	C299.8,108.2,299.9,108.7,299.9,109.2z M298.8,108.8c0-0.7-0.2-1.3-0.7-1.7c-0.4-0.5-1-0.7-1.7-0.7c-0.4,0-0.7,0.1-1,0.2
	s-0.6,0.3-0.8,0.5c-0.2,0.2-0.4,0.5-0.5,0.8s-0.2,0.6-0.2,0.9C293.9,108.8,298.8,108.8,298.8,108.8z"/>
<text transform="matrix(1 0 0 1 -126.0527 861.0293)" style="font-family:'Helvetica'; font-size:6px;">CSEFround senza icone.indd   3</text>
<path class="st2" d="M811.5,858.1v3h0.6v-4.2h-0.4c-0.1,0.3-0.2,0.5-0.3,0.6s-0.4,0.1-0.8,0.2v0.4H811.5z"/>
<path class="st2" d="M814.9,860.7c-0.3,0-0.6-0.2-0.7-0.6c-0.1-0.3-0.1-0.6-0.1-1c0-0.6,0.1-1,0.2-1.3c0.1-0.3,0.4-0.4,0.7-0.4
	s0.6,0.2,0.7,0.5c0.1,0.3,0.2,0.7,0.2,1.2c0,0.7-0.1,1.1-0.2,1.4C815.4,860.5,815.2,860.7,814.9,860.7z M814.9,856.8
	c-0.6,0-1,0.3-1.3,1c-0.1,0.3-0.2,0.8-0.2,1.2c0,0.6,0.1,1.1,0.3,1.5s0.6,0.7,1.1,0.7c0.6,0,1-0.3,1.2-0.8c0.2-0.4,0.3-0.8,0.3-1.4
	c0-0.6-0.1-1.1-0.3-1.4C815.8,857.1,815.5,856.8,814.9,856.8z"/>
<polygon class="st2" points="816.6,861 817.1,861 818.4,856.7 818,856.7 "/>
<path class="st2" d="M818.5,861h2.9v-0.5h-2.3c0.1-0.2,0.2-0.4,0.4-0.6c0.1-0.1,0.3-0.2,0.5-0.3l0.4-0.2c0.4-0.2,0.6-0.4,0.7-0.5
	c0.2-0.2,0.4-0.5,0.4-0.9c0-0.3-0.1-0.6-0.3-0.9c-0.2-0.3-0.6-0.4-1.1-0.4c-0.6,0-1,0.2-1.2,0.6c-0.1,0.2-0.2,0.5-0.2,0.9h0.5
	c0-0.3,0-0.5,0.1-0.6c0.1-0.3,0.4-0.4,0.8-0.4c0.2,0,0.4,0.1,0.6,0.2c0.1,0.1,0.2,0.3,0.2,0.6c0,0.2-0.1,0.4-0.2,0.6
	c-0.1,0.1-0.3,0.2-0.5,0.4l-0.6,0.3c-0.4,0.2-0.6,0.5-0.8,0.7C818.6,860.4,818.5,860.7,818.5,861z"/>
<path class="st2" d="M821.8,861h2.9v-0.5h-2.3c0.1-0.2,0.2-0.4,0.4-0.6c0.1-0.1,0.3-0.2,0.5-0.3l0.4-0.2c0.4-0.2,0.6-0.4,0.7-0.5
	c0.2-0.2,0.4-0.5,0.4-0.9c0-0.3-0.1-0.6-0.3-0.9c-0.2-0.3-0.6-0.4-1.1-0.4c-0.6,0-1,0.2-1.2,0.6c-0.1,0.2-0.2,0.5-0.2,0.9h0.5
	c0-0.3,0-0.5,0.1-0.6c0.1-0.3,0.4-0.4,0.8-0.4c0.2,0,0.4,0.1,0.6,0.2c0.1,0.1,0.2,0.3,0.2,0.6c0,0.2-0.1,0.4-0.2,0.6
	c-0.1,0.1-0.3,0.2-0.5,0.4l-0.6,0.3c-0.4,0.2-0.6,0.5-0.8,0.7S821.8,860.7,821.8,861z"/>
<polygon class="st2" points="825,861 825.4,861 826.8,856.7 826.3,856.7 "/>
<path class="st2" d="M828.2,858.1v3h0.6v-4.2h-0.4c-0.1,0.3-0.2,0.5-0.3,0.6s-0.4,0.1-0.8,0.2v0.4H828.2z"/>
<path class="st2" d="M831.5,861.1c0.5,0,0.9-0.1,1.1-0.4c0.3-0.3,0.4-0.6,0.4-1c0-0.2-0.1-0.5-0.2-0.6s-0.3-0.3-0.5-0.3
	c0.1-0.1,0.2-0.1,0.3-0.2c0.1-0.2,0.2-0.4,0.2-0.6c0-0.4-0.1-0.6-0.4-0.8c-0.2-0.2-0.6-0.3-1-0.3c-0.5,0-0.9,0.2-1.1,0.6
	c-0.1,0.2-0.2,0.5-0.2,0.8h0.5c0-0.2,0.1-0.4,0.1-0.6c0.1-0.2,0.4-0.4,0.7-0.4c0.2,0,0.4,0.1,0.5,0.2c0.1,0.1,0.2,0.3,0.2,0.5
	c0,0.3-0.1,0.5-0.3,0.6c-0.1,0.1-0.3,0.1-0.5,0.1h-0.1h-0.1v0.5h0.1h0.1c0.3,0,0.6,0.1,0.7,0.2c0.2,0.1,0.3,0.3,0.3,0.6
	c0,0.2-0.1,0.4-0.3,0.6c-0.2,0.1-0.4,0.2-0.7,0.2c-0.4,0-0.6-0.1-0.7-0.3c-0.1-0.1-0.1-0.3-0.2-0.6h-0.6c0,0.4,0.1,0.7,0.3,1
	C830.7,861,831,861.1,831.5,861.1z"/>
<path class="st2" d="M838.5,856.9v0.5h2.3c-0.3,0.3-0.6,0.7-0.8,1.2c-0.5,0.8-0.7,1.6-0.9,2.4h0.6c0.1-0.4,0.2-0.7,0.2-0.9
	c0.1-0.3,0.2-0.6,0.4-1s0.4-0.7,0.6-1c0.2-0.3,0.4-0.6,0.5-0.7v-0.5H838.5z"/>
<path class="st2" d="M842.3,861h0.6v-0.6h-0.6V861z M842.3,858.6h0.6V858h-0.6V858.6z"/>
<path class="st2" d="M844.9,860.7c-0.3,0-0.6-0.2-0.7-0.6c-0.1-0.3-0.1-0.6-0.1-1c0-0.6,0.1-1,0.2-1.3c0.1-0.3,0.4-0.4,0.7-0.4
	s0.6,0.2,0.7,0.5c0.1,0.3,0.2,0.7,0.2,1.2c0,0.7-0.1,1.1-0.2,1.4C845.4,860.5,845.2,860.7,844.9,860.7z M844.9,856.8
	c-0.6,0-1,0.3-1.3,1c-0.1,0.3-0.2,0.8-0.2,1.2c0,0.6,0.1,1.1,0.3,1.5s0.6,0.7,1.1,0.7c0.6,0,1-0.3,1.2-0.8c0.2-0.4,0.3-0.8,0.3-1.4
	c0-0.6-0.1-1.1-0.3-1.4C845.9,857.1,845.5,856.8,844.9,856.8z"/>
<path class="st2" d="M848.2,858.1v3h0.6v-4.2h-0.4c-0.1,0.3-0.2,0.5-0.3,0.6s-0.4,0.1-0.8,0.2v0.4H848.2z"/>
<path class="st2" d="M854.8,858c0,0.3-0.1,0.5-0.2,0.6c-0.2,0.1-0.4,0.2-0.6,0.2h-1.2v-1.5h1.2c0.2,0,0.4,0,0.5,0.1
	C854.7,857.4,854.8,857.6,854.8,858z M852.2,861h0.6v-1.8h1.3c0.4,0,0.8-0.1,1-0.4s0.3-0.5,0.3-0.9s-0.1-0.7-0.4-0.9
	c-0.2-0.2-0.5-0.3-0.9-0.3h-1.9L852.2,861L852.2,861z"/>
<path class="st2" d="M856.1,861h0.6v-2.5c0-0.1,0-0.3,0-0.5s0-0.4,0-0.5v-0.1l1.2,3.6h0.6l1.2-3.6c0,0.2,0,0.5,0,0.7s0,0.3,0,0.4
	v2.5h0.6v-4.3h-0.8l-1.2,3.6l-1.2-3.6h-0.8v4.3H856.1z"/>
<text transform="matrix(1 0 0 1 809.9473 861.0293)" style="font-family:'Helvetica'; font-size:6px;">10/22/13   7:01 PM</text>
</svg>
