<svg xmlns="http://www.w3.org/2000/svg" viewBox="0 0 75 29"><path fill="#000" d="M7.728.308L.366 27.785.308 28h74.077V.308z"/><path fill="#FFF" d="M61.588 7.878c2.368 0 4.323 1.309 4.323 3.98 0 1.884-.807 3.067-2.403 3.695l2.403 4.878h-2.887l-2.242-4.52h-2.53v4.52h-2.51V7.878h5.847zm-.053 2.439h-3.282v3.228h3.282c1.166 0 1.794-.54 1.794-1.633 0-1.13-.682-1.595-1.794-1.595zm-14.517-2.44c2.367 0 4.322 1.31 4.322 3.98 0 2.907-1.937 4.127-4.537 4.127H44.04v4.447h-2.51V7.878h5.487zm-.09 2.44H44.04v3.228h2.923c1.166 0 1.794-.54 1.794-1.633s-.718-1.595-1.83-1.595zM36.732 20.43h-8.985V7.878h8.716v2.456h-6.205v2.17h3.604v2.439h-3.604v3.03h6.474zm-18.104-2.296c1.13 0 1.793-.484 2.457-1.596l2.116 1.256c-.86 1.775-2.367 2.833-4.645 2.833-3.282 0-5.488-2.51-5.488-6.474 0-3.82 2.296-6.474 5.578-6.474 2.367 0 3.802 1.148 4.59 2.78l-2.33 1.076c-.45-.86-1.166-1.363-2.296-1.363-1.883 0-2.96 1.65-2.96 3.98 0 2.26 1.095 3.982 2.978 3.982z"/></svg>