<svg xmlns="http://www.w3.org/2000/svg" viewBox="0 0 36 24"><rect width="36" height="24" fill="#003399"/><polygon points="18.00,2.30 18.38,3.47 19.62,3.47 18.62,4.20 19.00,5.38 18.00,4.65 17.00,5.38 17.38,4.20 16.38,3.47 17.62,3.47" fill="#FFCC00"/><polygon points="22.00,3.37 22.38,4.55 23.62,4.55 22.62,5.27 23.00,6.45 22.00,5.72 21.00,6.45 21.38,5.27 20.38,4.55 21.62,4.55" fill="#FFCC00"/><polygon points="24.93,6.30 25.31,7.47 26.54,7.47 25.55,8.20 25.93,9.38 24.93,8.65 23.93,9.38 24.31,8.20 23.31,7.47 24.55,7.47" fill="#FFCC00"/><polygon points="26.00,10.30 26.38,11.47 27.62,11.47 26.62,12.20 27.00,13.38 26.00,12.65 25.00,13.38 25.38,12.20 24.38,11.47 25.62,11.47" fill="#FFCC00"/><polygon points="24.93,14.30 25.31,15.47 26.54,15.47 25.55,16.20 25.93,17.38 24.93,16.65 23.93,17.38 24.31,16.20 23.31,15.47 24.55,15.47" fill="#FFCC00"/><polygon points="22.00,17.23 22.38,18.40 23.62,18.40 22.62,19.13 23.00,20.30 22.00,19.58 21.00,20.30 21.38,19.13 20.38,18.40 21.62,18.40" fill="#FFCC00"/><polygon points="18.00,18.30 18.38,19.47 19.62,19.47 18.62,20.20 19.00,21.38 18.00,20.65 17.00,21.38 17.38,20.20 16.38,19.47 17.62,19.47" fill="#FFCC00"/><polygon points="14.00,17.23 14.38,18.40 15.62,18.40 14.62,19.13 15.00,20.30 14.00,19.58 13.00,20.30 13.38,19.13 12.38,18.40 13.62,18.40" fill="#FFCC00"/><polygon points="11.07,14.30 11.45,15.47 12.69,15.47 11.69,16.20 12.07,17.38 11.07,16.65 10.07,17.38 10.45,16.20 9.46,15.47 10.69,15.47" fill="#FFCC00"/><polygon points="10.00,10.30 10.38,11.47 11.62,11.47 10.62,12.20 11.00,13.38 10.00,12.65 9.00,13.38 9.38,12.20 8.38,11.47 9.62,11.47" fill="#FFCC00"/><polygon points="11.07,6.30 11.45,7.47 12.69,7.47 11.69,8.20 12.07,9.38 11.07,8.65 10.07,9.38 10.45,8.20 9.46,7.47 10.69,7.47" fill="#FFCC00"/><polygon points="14.00,3.37 14.38,4.55 15.62,4.55 14.62,5.27 15.00,6.45 14.00,5.72 13.00,6.45 13.38,5.27 12.38,4.55 13.62,4.55" fill="#FFCC00"/></svg>