<?xml version="1.0" encoding="utf-8"?>
<!-- Generator: Adobe Illustrator 21.0.0, SVG Export Plug-In . SVG Version: 6.00 Build 0)  -->
<svg version="1.1" id="Livello_1" xmlns="http://www.w3.org/2000/svg" xmlns:xlink="http://www.w3.org/1999/xlink" x="0px" y="0px"
	 viewBox="0 0 122.6 44" style="enable-background:new 0 0 122.6 44;" xml:space="preserve">
<style type="text/css">
	.st0{enable-background:new    ;}
	.st1{fill:#9B0E0E;}
</style>
<title>logo</title>
<g id="Livello_2">
	<g id="Livello_1-2">
		<g class="st0">
			<path class="st1" d="M11.6,23.1H8.7v10.8H3.2V5.8h11c5.5,0,9,3.8,9,8.7c0,3.9-2.3,6.9-6,8l6,11.5h-6.1L11.6,23.1z M13.2,18.4
				c2.8,0,4.4-1.6,4.4-3.9c0-2.4-1.6-3.9-4.4-3.9H8.7v7.8H13.2z"/>
			<path class="st1" d="M26.1,33.9V5.8h17.6v5.2H31.5v6.4h11v4.9h-11v6.5h12.2v5.2H26.1z"/>
			<path class="st1" d="M47.2,33.9V5.8h10.1c8,0,13.9,5.2,13.9,14.1c0,8.9-5.9,14.1-13.9,14.1H47.2z M57,28.9c4.6,0,8.5-2.9,8.5-9
				c0-6.1-3.8-9-8.4-9h-4.4v18H57z"/>
		</g>
		<g class="st0">
			<path d="M80,12.1l-0.8-2.2c-0.1-0.3-0.2-0.4-0.5-0.4h-0.4v1.6c0,0.1,0,0.2,0.1,0.2l0.6,0.1v0.7h-2.8v-0.7l0.5-0.1
				c0.1,0,0.1,0,0.1-0.2V6.7c0-0.1,0-0.2-0.1-0.2l-0.5-0.1V5.8h3c1.6,0,2,0.8,2,1.7c0,0.9-0.5,1.4-1.1,1.7c0.3,0.1,0.4,0.3,0.5,0.7
				l0.5,1.2c0.1,0.1,0.1,0.1,0.3,0.2l0.5,0.1v0.7H80z M78.7,8.6c0.6,0,1.2-0.1,1.2-1c0-0.7-0.4-0.9-1.1-0.9h-0.4v1.9H78.7z"/>
		</g>
		<g class="st0">
			<path d="M82.5,9.8c0-1.4,0.8-2.4,2.3-2.4c1.6,0,2.2,1,2.2,2.3c0,1.5-0.7,2.4-2.3,2.4C83.2,12.2,82.5,11.2,82.5,9.8z M85.7,9.8
				c0-1-0.3-1.4-0.9-1.4c-0.6,0-1,0.4-1,1.4c0,1,0.3,1.5,0.9,1.5C85.4,11.3,85.7,10.9,85.7,9.8z"/>
		</g>
		<g class="st0">
			<path d="M93.5,12.1V9.3c0-0.3,0-0.7-0.5-0.7c-0.2,0-0.5,0.1-0.7,0.2c0,0.1,0,0.3,0,0.4v2c0,0.1,0,0.2,0.1,0.2l0.3,0.1v0.7H91V9.2
				c0-0.3,0-0.7-0.5-0.7c-0.3,0-0.5,0.1-0.7,0.3v2.3c0,0.1,0,0.1,0.1,0.2l0.4,0.1v0.7H88v-0.7l0.4-0.1c0.1,0,0.1,0,0.1-0.2V8.6
				c0-0.1,0-0.2-0.1-0.2L88,8.2l0.1-0.7h1.5L89.7,8l0,0c0.4-0.3,0.8-0.5,1.4-0.5c0.4,0,0.8,0.1,1.1,0.5c0.3-0.2,0.8-0.5,1.4-0.5
				c0.9,0,1.3,0.5,1.3,1.5v2.2c0,0.1,0,0.2,0.1,0.2l0.4,0.1v0.7H93.5z"/>
			<path d="M100.3,11.7c-0.5,0.3-1.1,0.4-1.8,0.4c-1.7,0-2.2-1-2.2-2.4c0-1.6,1-2.3,2.1-2.3c1.1,0,1.9,0.6,1.9,2.1
				c0,0.1,0,0.4,0,0.6h-2.7c0,0.6,0.3,1,1,1c0.3,0,0.7-0.1,1.3-0.3L100.3,11.7z M99,9.3c0-0.7-0.3-0.9-0.7-0.9
				c-0.4,0-0.7,0.2-0.7,0.9H99z"/>
		</g>
		<g class="st0">
			<path d="M76.3,22.5v-0.7l0.5-0.1c0.1,0,0.1,0,0.1-0.2v-4.4c0-0.1,0-0.2-0.1-0.2l-0.5-0.1v-0.7h4.6v1.8l-1,0l-0.1-0.7
				c0-0.1-0.1-0.1-0.1-0.1h-1.4v1.7h2v1h-2v1.7h1.6c0.1,0,0.1,0,0.1-0.1l0.1-0.8h0.9v1.8H76.3z"/>
		</g>
		<g class="st0">
			<path d="M85.8,22.1c-0.4,0.2-1,0.4-1.6,0.4c-1.6,0-2.3-1-2.3-2.3c0-1.6,1-2.4,2.4-2.4c0.7,0,1.3,0.2,1.5,0.4v1.4l-0.9,0L84.8,19
				c0-0.1,0-0.1-0.1-0.1c-0.1,0-0.3-0.1-0.4-0.1c-0.5,0-1,0.4-1,1.4c0,1.1,0.5,1.4,1.1,1.4c0.4,0,0.8-0.1,1.1-0.3L85.8,22.1z"/>
		</g>
		<g class="st0">
			<path d="M86.5,20.2c0-1.4,0.8-2.4,2.3-2.4c1.6,0,2.2,1,2.2,2.3c0,1.5-0.7,2.4-2.3,2.4C87.1,22.6,86.5,21.6,86.5,20.2z M89.7,20.2
				c0-1-0.3-1.4-0.9-1.4c-0.6,0-1,0.4-1,1.4c0,1,0.3,1.5,0.9,1.5C89.3,21.7,89.7,21.3,89.7,20.2z"/>
		</g>
		<g class="st0">
			<path d="M94.9,22.5v-2.8c0-0.4,0-0.8-0.5-0.8c-0.3,0-0.7,0.2-0.9,0.3v2.3c0,0.1,0,0.2,0.1,0.2l0.4,0.1v0.7h-2.4v-0.7l0.4-0.1
				c0.1,0,0.1,0,0.1-0.2V19c0-0.1,0-0.2-0.1-0.2l-0.5-0.2l0.1-0.7h1.5l0.1,0.5l0,0c0.4-0.3,0.9-0.6,1.5-0.6c0.9,0,1.3,0.5,1.3,1.5
				v2.2c0,0.1,0,0.2,0.1,0.2l0.4,0.1v0.7H94.9z"/>
		</g>
		<g class="st0">
			<path d="M97.4,20.2c0-1.4,0.8-2.4,2.3-2.4c1.6,0,2.2,1,2.2,2.3c0,1.5-0.7,2.4-2.3,2.4C98.1,22.6,97.4,21.6,97.4,20.2z
				 M100.6,20.2c0-1-0.3-1.4-0.9-1.4c-0.6,0-1,0.4-1,1.4c0,1,0.3,1.5,0.9,1.5C100.3,21.7,100.6,21.3,100.6,20.2z"/>
		</g>
		<g class="st0">
			<path d="M108.2,22.5v-2.8c0-0.3,0-0.7-0.5-0.7c-0.2,0-0.5,0.1-0.7,0.2c0,0.1,0,0.3,0,0.4v2c0,0.1,0,0.2,0.1,0.2l0.3,0.1v0.7h-1.8
				v-2.8c0-0.3,0-0.7-0.5-0.7c-0.3,0-0.5,0.1-0.7,0.3v2.3c0,0.1,0,0.1,0.1,0.2l0.4,0.1v0.7h-2.4v-0.7l0.4-0.1c0.1,0,0.1,0,0.1-0.2
				V19c0-0.1,0-0.2-0.1-0.2l-0.5-0.2l0.1-0.7h1.5l0.1,0.5l0,0c0.4-0.3,0.8-0.5,1.4-0.5c0.4,0,0.8,0.1,1.1,0.5
				c0.3-0.2,0.8-0.5,1.4-0.5c0.9,0,1.3,0.5,1.3,1.5v2.2c0,0.1,0,0.2,0.1,0.2l0.4,0.1v0.7H108.2z"/>
			<path d="M110.6,22.5v-0.7l0.4-0.1c0.1,0,0.1,0,0.1-0.2V19c0-0.1,0-0.2-0.1-0.2l-0.5-0.2l0.1-0.7h1.8v3.6c0,0.1,0,0.2,0.1,0.2
				l0.4,0.1v0.7H110.6z M111.7,17.3c-0.5,0-0.8-0.3-0.8-0.8c0-0.5,0.3-0.8,0.8-0.8c0.5,0,0.8,0.3,0.8,0.8
				C112.5,17,112.3,17.3,111.7,17.3z"/>
		</g>
		<g class="st0">
			<path d="M117.6,22.1c-0.4,0.2-1,0.4-1.6,0.4c-1.6,0-2.3-1-2.3-2.3c0-1.6,1-2.4,2.4-2.4c0.7,0,1.3,0.2,1.5,0.4v1.4l-0.9,0
				l-0.1-0.6c0-0.1,0-0.1-0.1-0.1c-0.1,0-0.3-0.1-0.4-0.1c-0.5,0-1,0.4-1,1.4c0,1.1,0.5,1.4,1.1,1.4c0.4,0,0.8-0.1,1.1-0.3
				L117.6,22.1z"/>
		</g>
		<g class="st0">
			<path d="M121,19.3l-0.1-0.5c0-0.1,0-0.1-0.1-0.1c-0.1,0-0.3-0.1-0.6-0.1c-0.4,0-0.7,0.2-0.7,0.4c0,0.4,0.5,0.4,1,0.6
				c0.7,0.2,1.5,0.4,1.5,1.4c0,1.1-0.9,1.5-2,1.5c-0.8,0-1.6-0.2-1.7-0.3V21l0.9,0.1l0.1,0.5c0,0.1,0,0.1,0.1,0.1
				c0.1,0,0.3,0.1,0.7,0.1c0.5,0,0.7-0.1,0.7-0.5c0-0.3-0.3-0.5-0.8-0.5c-0.7-0.1-1.7-0.3-1.7-1.4c0-1.1,0.9-1.5,1.9-1.5
				c0.7,0,1.4,0.2,1.6,0.3v1.3L121,19.3z"/>
		</g>
		<g class="st0">
			<path d="M76.3,32.9v-0.7l0.5-0.1c0.1,0,0.1,0,0.1-0.2v-4.4c0-0.1,0-0.2-0.1-0.2l-0.5-0.1v-0.7h2.8c2.2,0,3.1,1.2,3.1,3
				c0,1.9-1,3.2-3.3,3.2H76.3z M78.8,31.9c1.5,0,2-0.9,2-2.2c0-1.6-0.6-2.2-2-2.2h-0.5v4.4H78.8z"/>
			<path d="M83.3,30.6c0-1.4,0.8-2.4,2.3-2.4c1.6,0,2.2,1,2.2,2.3c0,1.5-0.7,2.4-2.3,2.4C84,33,83.3,32,83.3,30.6z M86.5,30.6
				c0-1-0.3-1.4-0.9-1.4c-0.6,0-1,0.4-1,1.4c0,1,0.3,1.5,0.9,1.5C86.2,32.1,86.5,31.7,86.5,30.6z"/>
			<path d="M92.9,32.6c-0.4,0.2-1,0.4-1.6,0.4c-1.6,0-2.3-1-2.3-2.3c0-1.6,1-2.4,2.4-2.4c0.7,0,1.3,0.2,1.5,0.4V30l-0.9,0l-0.1-0.6
				c0-0.1,0-0.1-0.1-0.1c-0.1,0-0.3-0.1-0.4-0.1c-0.5,0-1,0.4-1,1.4c0,1.1,0.5,1.4,1.1,1.4c0.4,0,0.8-0.1,1.1-0.3L92.9,32.6z"/>
		</g>
		<g class="st0">
			<path d="M97.3,32.6C97,32.8,96.4,33,95.9,33c-1,0-1.4-0.4-1.4-1.4v-2.3c0-0.1,0-0.1-0.1-0.1h-0.6v-0.8c0.8-0.1,1.1-0.5,1.2-1.4
				h0.8v1.2c0,0.1,0,0.1,0.1,0.1h1.2v0.9h-1.3v2.1c0,0.5,0.1,0.7,0.6,0.7c0.2,0,0.5-0.1,0.7-0.1L97.3,32.6z"/>
		</g>
		<g class="st0">
			<path d="M98.1,30.6c0-1.4,0.8-2.4,2.3-2.4c1.6,0,2.2,1,2.2,2.3c0,1.5-0.7,2.4-2.3,2.4C98.7,33,98.1,32,98.1,30.6z M101.3,30.6
				c0-1-0.3-1.4-0.9-1.4c-0.6,0-1,0.4-1,1.4c0,1,0.3,1.5,0.9,1.5C100.9,32.1,101.3,31.7,101.3,30.6z"/>
		</g>
		<g class="st0">
			<path d="M103.7,32.9v-0.7l0.4-0.1c0.1,0,0.1,0,0.1-0.2v-2.5c0-0.1,0-0.2-0.1-0.2l-0.5-0.2l0.1-0.7h1.5l0.1,0.7h0.1
				c0.3-0.4,0.7-0.8,1.2-0.8c0.2,0,0.6,0,0.8,0.1v1.6l-1,0l-0.1-0.5c0-0.1,0-0.1-0.1-0.1c-0.2,0-0.5,0.2-0.6,0.3v2.3
				c0,0.1,0,0.2,0.1,0.2l0.9,0.1v0.7H103.7z"/>
		</g>
		<g class="st0">
			<path d="M111.1,32.9l-0.1-0.5l0,0c-0.3,0.3-0.8,0.6-1.5,0.6c-1.1,0-1.3-0.7-1.3-1.3c0-0.9,0.5-1.3,1.6-1.3l1-0.1v-0.5
				c0-0.4,0-0.7-0.6-0.7c-0.4,0-0.6,0.1-0.6,0.6l-1.2-0.1c0-1.2,1.1-1.3,1.9-1.3c1.3,0,1.8,0.4,1.8,1.6v2.1c0,0.1,0,0.2,0.1,0.2
				l0.4,0.1v0.7H111.1z M110.9,31l-0.6,0c-0.5,0-0.7,0.2-0.7,0.5c0,0.3,0.2,0.5,0.5,0.5c0.3,0,0.6-0.2,0.8-0.3V31z"/>
		</g>
		<g class="st0">
			<path d="M116.9,32.6c-0.4,0.2-0.9,0.3-1.4,0.3c-1,0-1.4-0.4-1.4-1.4v-2.3c0-0.1,0-0.1-0.1-0.1h-0.6v-0.8c0.8-0.1,1.1-0.5,1.2-1.4
				h0.8v1.2c0,0.1,0,0.1,0.1,0.1h1.2v0.9h-1.3v2.1c0,0.5,0.1,0.7,0.6,0.7c0.2,0,0.5-0.1,0.7-0.1L116.9,32.6z"/>
		</g>
		<g class="st0">
			<path d="M121.7,32.5c-0.5,0.3-1.1,0.4-1.8,0.4c-1.7,0-2.2-1-2.2-2.4c0-1.6,1-2.3,2.1-2.3c1.1,0,1.9,0.6,1.9,2.1
				c0,0.1,0,0.4,0,0.6h-2.7c0,0.6,0.3,1,1,1c0.3,0,0.7-0.1,1.3-0.3L121.7,32.5z M120.4,30.1c0-0.7-0.3-0.9-0.6-0.9
				c-0.4,0-0.7,0.2-0.7,0.9H120.4z"/>
		</g>
		<rect x="103.1" y="10.9" class="st1" width="19.1" height="1.2"/>
	</g>
</g>
</svg>
